<?xml version="1.0" encoding="UTF-8"?>
<svg width="16px" height="16px" viewBox="0 0 16 16" version="1.1" xmlns="http://www.w3.org/2000/svg" xmlns:xlink="http://www.w3.org/1999/xlink">
    <!-- Generator: Sketch 48.1 (47250) - http://www.bohemiancoding.com/sketch -->
    <title>icon/noti_3x</title>
    <desc>Created with Sketch.</desc>
    <defs></defs>
    <g id="Symbols" stroke="none" stroke-width="1" fill="none" fill-rule="evenodd">
        <g id="icon/noti_3x" fill="#CCCCCC">
            <path d="M8.92463374,1.78708136 C10.326202,2.03214939 11.5270583,2.86089597 12.2674576,4.01357591 L2.65785937,13.293457 L1.43819541,13.293457 C1.30779891,13.293457 1.18256131,13.2425165 1.08918684,13.1514976 C0.891446521,12.9587454 0.887402774,12.6421888 1.08015488,12.4444485 L3.05749512,10.4159368 L3.05749512,6.7121582 C3.05749512,4.26953696 4.80902697,2.2360079 7.12463379,1.79902792 L7.12463379,0.887304664 C7.12463379,0.390248402 7.5275775,-0.0126953125 8.02463377,-0.0126953125 C8.52169003,-0.0126953125 8.92463374,0.390248402 8.92463374,0.887304664 L8.92463374,1.78708136 Z M12.8759223,5.37221736 C12.9942553,5.79866279 13.0574951,6.24802527 13.0574951,6.7121582 L13.0574951,10.7198864 L14.5493504,12.4689868 C14.6265333,12.5594786 14.6689308,12.6745202 14.6689308,12.793457 C14.6689308,13.0695994 14.4450732,13.293457 14.1689308,13.293457 L4.6732385,13.293457 L12.8759223,5.37221736 Z M6,14 L10,14 C10,15.1045695 9.1045695,16 8,16 C6.8954305,16 6,15.1045695 6,14 Z" id="铃铛"></path>
        </g>
    </g>
</svg>